<mxfile host="app.diagrams.net" agent="Mozilla/5.0 (Windows NT 10.0; Win64; x64) AppleWebKit/537.36 (KHTML, like Gecko) Chrome/140.0.0.0 Safari/537.36 Edg/140.0.0.0" version="28.2.5">
  <diagram name="Страница — 1" id="ekpHIb1y0OboxPU9T9J8">
    <mxGraphModel dx="410" dy="454" grid="1" gridSize="10" guides="1" tooltips="1" connect="1" arrows="1" fold="1" page="0" pageScale="1" pageWidth="3300" pageHeight="4681" math="0" shadow="0">
      <root>
        <mxCell id="0" />
        <mxCell id="1" parent="0" />
        <mxCell id="gilFGUkcJfQRJBy5sK6g-24" style="edgeStyle=orthogonalEdgeStyle;rounded=0;orthogonalLoop=1;jettySize=auto;html=1;" edge="1" parent="1" source="gilFGUkcJfQRJBy5sK6g-11" target="gilFGUkcJfQRJBy5sK6g-15">
          <mxGeometry relative="1" as="geometry" />
        </mxCell>
        <mxCell id="gilFGUkcJfQRJBy5sK6g-28" style="edgeStyle=orthogonalEdgeStyle;rounded=0;orthogonalLoop=1;jettySize=auto;html=1;exitX=1;exitY=0.5;exitDx=0;exitDy=0;" edge="1" parent="1" source="gilFGUkcJfQRJBy5sK6g-11" target="gilFGUkcJfQRJBy5sK6g-25">
          <mxGeometry relative="1" as="geometry" />
        </mxCell>
        <mxCell id="gilFGUkcJfQRJBy5sK6g-29" style="edgeStyle=orthogonalEdgeStyle;rounded=0;orthogonalLoop=1;jettySize=auto;html=1;" edge="1" parent="1" source="gilFGUkcJfQRJBy5sK6g-11" target="gilFGUkcJfQRJBy5sK6g-26">
          <mxGeometry relative="1" as="geometry" />
        </mxCell>
        <mxCell id="gilFGUkcJfQRJBy5sK6g-30" style="edgeStyle=orthogonalEdgeStyle;rounded=0;orthogonalLoop=1;jettySize=auto;html=1;" edge="1" parent="1" source="gilFGUkcJfQRJBy5sK6g-11" target="gilFGUkcJfQRJBy5sK6g-27">
          <mxGeometry relative="1" as="geometry" />
        </mxCell>
        <mxCell id="gilFGUkcJfQRJBy5sK6g-11" value="Пользователь" style="rounded=0;whiteSpace=wrap;html=1;" vertex="1" parent="1">
          <mxGeometry x="620" y="240" width="120" height="60" as="geometry" />
        </mxCell>
        <mxCell id="gilFGUkcJfQRJBy5sK6g-37" style="edgeStyle=orthogonalEdgeStyle;rounded=0;orthogonalLoop=1;jettySize=auto;html=1;entryX=0;entryY=0.5;entryDx=0;entryDy=0;" edge="1" parent="1" source="gilFGUkcJfQRJBy5sK6g-12" target="gilFGUkcJfQRJBy5sK6g-32">
          <mxGeometry relative="1" as="geometry" />
        </mxCell>
        <mxCell id="gilFGUkcJfQRJBy5sK6g-38" style="edgeStyle=orthogonalEdgeStyle;rounded=0;orthogonalLoop=1;jettySize=auto;html=1;entryX=0;entryY=0.5;entryDx=0;entryDy=0;" edge="1" parent="1" source="gilFGUkcJfQRJBy5sK6g-12" target="gilFGUkcJfQRJBy5sK6g-33">
          <mxGeometry relative="1" as="geometry" />
        </mxCell>
        <mxCell id="gilFGUkcJfQRJBy5sK6g-39" style="edgeStyle=orthogonalEdgeStyle;rounded=0;orthogonalLoop=1;jettySize=auto;html=1;entryX=0;entryY=0.5;entryDx=0;entryDy=0;" edge="1" parent="1" source="gilFGUkcJfQRJBy5sK6g-12" target="gilFGUkcJfQRJBy5sK6g-34">
          <mxGeometry relative="1" as="geometry" />
        </mxCell>
        <mxCell id="gilFGUkcJfQRJBy5sK6g-40" style="edgeStyle=orthogonalEdgeStyle;rounded=0;orthogonalLoop=1;jettySize=auto;html=1;entryX=0;entryY=0.5;entryDx=0;entryDy=0;" edge="1" parent="1" source="gilFGUkcJfQRJBy5sK6g-12" target="gilFGUkcJfQRJBy5sK6g-35">
          <mxGeometry relative="1" as="geometry" />
        </mxCell>
        <mxCell id="gilFGUkcJfQRJBy5sK6g-41" style="edgeStyle=orthogonalEdgeStyle;rounded=0;orthogonalLoop=1;jettySize=auto;html=1;entryX=0;entryY=0.5;entryDx=0;entryDy=0;" edge="1" parent="1" source="gilFGUkcJfQRJBy5sK6g-12" target="gilFGUkcJfQRJBy5sK6g-36">
          <mxGeometry relative="1" as="geometry" />
        </mxCell>
        <mxCell id="gilFGUkcJfQRJBy5sK6g-49" style="edgeStyle=orthogonalEdgeStyle;rounded=0;orthogonalLoop=1;jettySize=auto;html=1;entryX=0;entryY=0.5;entryDx=0;entryDy=0;" edge="1" parent="1" source="gilFGUkcJfQRJBy5sK6g-12" target="gilFGUkcJfQRJBy5sK6g-48">
          <mxGeometry relative="1" as="geometry" />
        </mxCell>
        <mxCell id="gilFGUkcJfQRJBy5sK6g-12" value="Задача" style="rounded=0;whiteSpace=wrap;html=1;" vertex="1" parent="1">
          <mxGeometry x="620" y="600" width="120" height="60" as="geometry" />
        </mxCell>
        <mxCell id="gilFGUkcJfQRJBy5sK6g-22" style="edgeStyle=orthogonalEdgeStyle;rounded=0;orthogonalLoop=1;jettySize=auto;html=1;" edge="1" parent="1" source="gilFGUkcJfQRJBy5sK6g-14" target="gilFGUkcJfQRJBy5sK6g-16">
          <mxGeometry relative="1" as="geometry" />
        </mxCell>
        <mxCell id="gilFGUkcJfQRJBy5sK6g-44" style="edgeStyle=orthogonalEdgeStyle;rounded=0;orthogonalLoop=1;jettySize=auto;html=1;" edge="1" parent="1" source="gilFGUkcJfQRJBy5sK6g-14" target="gilFGUkcJfQRJBy5sK6g-31">
          <mxGeometry relative="1" as="geometry" />
        </mxCell>
        <mxCell id="gilFGUkcJfQRJBy5sK6g-45" style="edgeStyle=orthogonalEdgeStyle;rounded=0;orthogonalLoop=1;jettySize=auto;html=1;" edge="1" parent="1" source="gilFGUkcJfQRJBy5sK6g-14" target="gilFGUkcJfQRJBy5sK6g-17">
          <mxGeometry relative="1" as="geometry" />
        </mxCell>
        <mxCell id="gilFGUkcJfQRJBy5sK6g-47" style="edgeStyle=orthogonalEdgeStyle;rounded=0;orthogonalLoop=1;jettySize=auto;html=1;entryX=0;entryY=0.5;entryDx=0;entryDy=0;" edge="1" parent="1" source="gilFGUkcJfQRJBy5sK6g-14" target="gilFGUkcJfQRJBy5sK6g-46">
          <mxGeometry relative="1" as="geometry" />
        </mxCell>
        <mxCell id="gilFGUkcJfQRJBy5sK6g-14" value="Приложение" style="rounded=0;whiteSpace=wrap;html=1;" vertex="1" parent="1">
          <mxGeometry x="620" y="420" width="120" height="60" as="geometry" />
        </mxCell>
        <mxCell id="gilFGUkcJfQRJBy5sK6g-23" style="edgeStyle=orthogonalEdgeStyle;rounded=0;orthogonalLoop=1;jettySize=auto;html=1;" edge="1" parent="1" source="gilFGUkcJfQRJBy5sK6g-15" target="gilFGUkcJfQRJBy5sK6g-14">
          <mxGeometry relative="1" as="geometry" />
        </mxCell>
        <mxCell id="gilFGUkcJfQRJBy5sK6g-15" value="Открывает" style="rhombus;whiteSpace=wrap;html=1;" vertex="1" parent="1">
          <mxGeometry x="620" y="330" width="120" height="60" as="geometry" />
        </mxCell>
        <mxCell id="gilFGUkcJfQRJBy5sK6g-21" style="edgeStyle=orthogonalEdgeStyle;rounded=0;orthogonalLoop=1;jettySize=auto;html=1;" edge="1" parent="1" source="gilFGUkcJfQRJBy5sK6g-16" target="gilFGUkcJfQRJBy5sK6g-12">
          <mxGeometry relative="1" as="geometry" />
        </mxCell>
        <mxCell id="gilFGUkcJfQRJBy5sK6g-42" style="edgeStyle=orthogonalEdgeStyle;rounded=0;orthogonalLoop=1;jettySize=auto;html=1;entryX=0.25;entryY=0;entryDx=0;entryDy=0;" edge="1" parent="1" source="gilFGUkcJfQRJBy5sK6g-16" target="gilFGUkcJfQRJBy5sK6g-12">
          <mxGeometry relative="1" as="geometry">
            <Array as="points">
              <mxPoint x="680" y="580" />
              <mxPoint x="650" y="580" />
            </Array>
          </mxGeometry>
        </mxCell>
        <mxCell id="gilFGUkcJfQRJBy5sK6g-43" style="edgeStyle=orthogonalEdgeStyle;rounded=0;orthogonalLoop=1;jettySize=auto;html=1;entryX=0.75;entryY=0;entryDx=0;entryDy=0;" edge="1" parent="1" source="gilFGUkcJfQRJBy5sK6g-16" target="gilFGUkcJfQRJBy5sK6g-12">
          <mxGeometry relative="1" as="geometry">
            <Array as="points">
              <mxPoint x="680" y="580" />
              <mxPoint x="710" y="580" />
            </Array>
          </mxGeometry>
        </mxCell>
        <mxCell id="gilFGUkcJfQRJBy5sK6g-16" value="Показывает" style="rhombus;whiteSpace=wrap;html=1;" vertex="1" parent="1">
          <mxGeometry x="620" y="510" width="120" height="60" as="geometry" />
        </mxCell>
        <mxCell id="gilFGUkcJfQRJBy5sK6g-17" value="Версия" style="ellipse;whiteSpace=wrap;html=1;" vertex="1" parent="1">
          <mxGeometry x="800" y="435" width="60" height="30" as="geometry" />
        </mxCell>
        <mxCell id="gilFGUkcJfQRJBy5sK6g-25" value="ID" style="ellipse;whiteSpace=wrap;html=1;" vertex="1" parent="1">
          <mxGeometry x="800" y="225" width="60" height="30" as="geometry" />
        </mxCell>
        <mxCell id="gilFGUkcJfQRJBy5sK6g-26" value="Имя" style="ellipse;whiteSpace=wrap;html=1;" vertex="1" parent="1">
          <mxGeometry x="800" y="255" width="60" height="30" as="geometry" />
        </mxCell>
        <mxCell id="gilFGUkcJfQRJBy5sK6g-27" value="Почта" style="ellipse;whiteSpace=wrap;html=1;" vertex="1" parent="1">
          <mxGeometry x="800" y="285" width="60" height="30" as="geometry" />
        </mxCell>
        <mxCell id="gilFGUkcJfQRJBy5sK6g-31" value="Нейросеть" style="ellipse;whiteSpace=wrap;html=1;fontSize=11;" vertex="1" parent="1">
          <mxGeometry x="800" y="465" width="60" height="30" as="geometry" />
        </mxCell>
        <mxCell id="gilFGUkcJfQRJBy5sK6g-32" value="ID" style="ellipse;whiteSpace=wrap;html=1;" vertex="1" parent="1">
          <mxGeometry x="800" y="540" width="60" height="30" as="geometry" />
        </mxCell>
        <mxCell id="gilFGUkcJfQRJBy5sK6g-33" value="Дата" style="ellipse;whiteSpace=wrap;html=1;" vertex="1" parent="1">
          <mxGeometry x="800" y="570" width="60" height="30" as="geometry" />
        </mxCell>
        <mxCell id="gilFGUkcJfQRJBy5sK6g-34" value="Время" style="ellipse;whiteSpace=wrap;html=1;" vertex="1" parent="1">
          <mxGeometry x="800" y="600" width="60" height="30" as="geometry" />
        </mxCell>
        <mxCell id="gilFGUkcJfQRJBy5sK6g-35" value="Место" style="ellipse;whiteSpace=wrap;html=1;" vertex="1" parent="1">
          <mxGeometry x="800" y="630" width="60" height="30" as="geometry" />
        </mxCell>
        <mxCell id="gilFGUkcJfQRJBy5sK6g-36" value="Описание" style="ellipse;whiteSpace=wrap;html=1;" vertex="1" parent="1">
          <mxGeometry x="800" y="660" width="60" height="30" as="geometry" />
        </mxCell>
        <mxCell id="gilFGUkcJfQRJBy5sK6g-46" value="ID" style="ellipse;whiteSpace=wrap;html=1;" vertex="1" parent="1">
          <mxGeometry x="800" y="405" width="60" height="30" as="geometry" />
        </mxCell>
        <mxCell id="gilFGUkcJfQRJBy5sK6g-48" value="Категория" style="ellipse;whiteSpace=wrap;html=1;" vertex="1" parent="1">
          <mxGeometry x="800" y="690" width="60" height="30" as="geometry" />
        </mxCell>
      </root>
    </mxGraphModel>
  </diagram>
</mxfile>
